<?xml version="1.0" standalone="no"?>
<!DOCTYPE svg PUBLIC "-//W3C//DTD SVG 20010904//EN"
 "http://www.w3.org/TR/2001/REC-SVG-20010904/DTD/svg10.dtd">
<svg version="1.0" xmlns="http://www.w3.org/2000/svg"
 width="1700.000000pt" height="600.000000pt" viewBox="0 0 1700.000000 600.000000"
 preserveAspectRatio="xMidYMid meet">

<g transform="translate(0.000000,600.000000) scale(0.100000,-0.100000)"
fill="#000000" stroke="none">
<path d="M7236 4483 c-7 -26 -76 -421 -76 -438 0 -13 44 -15 325 -15 303 0
325 -1 324 -17 0 -10 -42 -252 -93 -538 -89 -505 -91 -520 -72 -523 35 -5 440
48 446 58 3 5 46 237 95 515 l89 505 333 0 c183 0 333 3 333 8 0 4 18 108 40
232 22 123 40 226 40 227 0 2 -400 3 -889 3 -839 0 -890 -1 -895 -17z"/>
<path d="M9252 4453 c-27 -133 -235 -1333 -231 -1337 4 -4 1810 212 1814 216
3 3 205 1149 205 1161 0 4 -107 7 -238 7 l-238 0 -94 -535 -94 -535 -414 0
c-389 0 -413 1 -408 18 3 9 44 238 91 507 47 270 88 502 91 518 l6 27 -240 0
-240 0 -10 -47z"/>
<path d="M11317 3944 c-54 -306 -96 -558 -93 -561 3 -3 112 7 243 23 l238 28
89 505 c48 278 91 518 93 534 l6 27 -239 0 -239 0 -98 -556z"/>
<path d="M12186 3995 c-49 -278 -87 -507 -85 -509 4 -4 365 37 437 49 26 5 32
11 32 30 0 33 16 32 24 -1 6 -21 11 -25 29 -21 12 3 111 16 220 28 126 15 196
27 194 33 -2 6 -71 210 -153 453 l-149 443 -230 0 -230 0 -89 -505z"/>
<path d="M13605 4488 c-12 -38 -146 -830 -141 -835 6 -6 445 42 451 49 2 2 33
174 69 383 36 209 68 388 70 398 4 16 -12 17 -220 17 -171 0 -226 -3 -229 -12z"/>
<path d="M15020 4493 c-296 -50 -567 -259 -696 -537 -31 -68 -71 -202 -63
-211 4 -4 405 41 446 50 15 4 32 23 49 57 39 76 118 150 189 177 55 21 72 22
289 19 221 -3 232 -4 263 -26 17 -12 41 -43 54 -70 12 -26 23 -48 25 -50 4 -6
459 51 467 58 15 13 -23 155 -63 236 -45 92 -138 189 -227 237 -105 57 -179
67 -457 66 -138 -1 -262 -4 -276 -6z"/>
<path d="M16267 4388 c-14 -29 -43 -95 -66 -146 -24 -52 -41 -96 -38 -98 5 -5
317 178 317 186 0 3 -17 14 -38 26 -20 11 -63 35 -94 53 l-58 32 -23 -53z"/>
<path d="M16355 4120 c-111 -53 -113 -47 24 -75 41 -9 76 -14 78 -11 2 2 3 33
1 68 l-3 65 -100 -47z"/>
<path d="M15970 3893 c-107 -13 -195 -25 -196 -26 -1 -1 1 -19 4 -39 l4 -38
234 0 234 0 0 65 0 65 -42 -1 c-24 -1 -131 -12 -238 -26z"/>
<path d="M14692 3740 c-123 -15 -227 -32 -231 -36 -5 -5 -52 -260 -106 -567
-93 -531 -98 -564 -92 -660 9 -166 65 -294 176 -400 77 -74 134 -109 234 -145
67 -24 86 -26 293 -30 246 -5 325 4 452 47 l83 29 -6 -39 -7 -39 215 0 216 0
10 53 c21 102 251 1418 251 1432 0 13 -60 15 -429 15 l-428 0 -7 -37 c-3 -21
-19 -111 -34 -200 l-29 -163 213 0 c118 0 214 -2 214 -5 0 -3 -16 -96 -35
-207 -40 -235 -59 -282 -141 -357 -82 -75 -109 -81 -374 -81 -224 0 -227 0
-279 26 -83 42 -121 114 -122 229 0 53 180 1104 196 1148 4 9 3 16 -1 16 -5
-1 -110 -14 -232 -29z"/>
<path d="M13870 3641 l-214 -26 -73 -410 c-40 -225 -73 -414 -73 -420 -1 -5
-60 163 -132 375 -71 212 -134 389 -138 394 -9 9 -387 -30 -421 -43 -13 -5 30
-138 260 -808 l275 -803 225 0 226 0 133 758 c74 416 144 814 156 885 21 113
21 127 7 126 -9 -1 -113 -13 -231 -28z"/>
<path d="M12521 3479 c-123 -15 -224 -29 -225 -31 -2 -2 -62 -343 -135 -758
-73 -415 -134 -763 -137 -772 -5 -17 10 -18 225 -18 l231 0 5 23 c11 46 275
1555 275 1571 0 9 -3 15 -7 15 -5 -1 -109 -14 -232 -30z"/>
<path d="M11630 3373 c-113 -14 -208 -28 -211 -32 -3 -3 -61 -321 -128 -706
-67 -385 -124 -708 -127 -717 -5 -17 11 -18 235 -18 l239 0 6 28 c13 60 256
1448 256 1459 0 17 -24 16 -270 -14z"/>
<path d="M10107 3190 c-489 -59 -890 -110 -891 -111 -3 -4 -206 -1159 -206
-1171 0 -5 108 -8 240 -8 132 0 240 3 240 6 0 9 179 1026 185 1052 l5 22 410
0 c226 0 410 -3 410 -6 0 -9 -179 -1024 -185 -1051 l-5 -23 239 0 240 0 6 33
c3 17 59 332 124 700 113 640 116 667 97 666 -12 -1 -421 -50 -909 -109z"/>
<path d="M8038 2941 c-114 -14 -209 -28 -212 -32 -6 -6 -176 -960 -176 -989 0
-20 6 -20 227 -18 l227 3 92 520 c51 286 93 526 93 533 1 15 0 15 -251 -17z"/>
</g>
</svg>
